<svg width="32" height="32" viewBox="0 0 32 32" fill="none" xmlns="http://www.w3.org/2000/svg">
<path fill-rule="evenodd" clip-rule="evenodd" d="M16 29.3333C23.3638 29.3333 29.3333 23.3638 29.3333 16C29.3333 8.6362 23.3638 2.66667 16 2.66667C8.6362 2.66667 2.66667 8.6362 2.66667 16C2.66667 23.3638 8.6362 29.3333 16 29.3333ZM16 26.6667C10.109 26.6667 5.33333 21.891 5.33333 16C5.33333 13.8736 5.95552 11.8926 7.02778 10.229L6.27668 9.80404C6.85594 8.78021 7.62353 7.8751 8.53901 7.1364L9.11616 7.85166C10.974 6.28055 13.3764 5.33333 16 5.33333C21.891 5.33333 26.6667 10.109 26.6667 16C26.6667 21.891 21.891 26.6667 16 26.6667Z" fill="white"/>
<path fill-rule="evenodd" clip-rule="evenodd" d="M18.484 23.5641C20.0814 23.0141 21.4636 21.9725 22.4327 20.5886L15.8794 16L22.2685 11.1855C21.2518 9.83624 19.834 8.8435 18.2184 8.34956C16.6028 7.85562 14.8723 7.88583 13.2749 8.43585C12.3477 8.7551 11.493 9.23997 10.7495 9.86125L13.7092 13.5292C13.5131 13.6875 13.3486 13.8815 13.2244 14.1009L9.09324 11.7635C8.27644 13.0719 7.85363 14.5915 7.88066 16.1396C7.91014 17.8288 8.47363 19.4653 9.49035 20.8145C10.5071 22.1638 11.9248 23.1565 13.5405 23.6504C15.1561 24.1444 16.8866 24.1142 18.484 23.5641Z" fill="white"/>
</svg>
